<mxfile host="www.draw.io" modified="2019-11-11T07:21:21.765Z" agent="Mozilla/5.0 (Windows NT 10.0; Win64; x64) AppleWebKit/537.36 (KHTML, like Gecko) Chrome/78.0.3904.87 Safari/537.36" etag="mXdb0OiAuJjv2gxIJs66" version="12.2.3" type="github" pages="1">
  <diagram id="NXIoUD9N5ucj-ySOKg1O" name="Page-1">
    <mxGraphModel dx="1408" dy="819" grid="1" gridSize="10" guides="1" tooltips="1" connect="1" arrows="1" fold="1" page="1" pageScale="1" pageWidth="827" pageHeight="1169" math="0" shadow="0">
      <root>
        <mxCell id="0"/>
        <mxCell id="1" parent="0"/>
        <mxCell id="bOeEGVWyrz0i01WOjsEk-16" style="edgeStyle=orthogonalEdgeStyle;rounded=0;orthogonalLoop=1;jettySize=auto;html=1;exitX=0.5;exitY=0.88;exitDx=0;exitDy=0;exitPerimeter=0;entryX=0.5;entryY=0;entryDx=0;entryDy=0;" parent="1" source="bOeEGVWyrz0i01WOjsEk-2" target="bOeEGVWyrz0i01WOjsEk-15" edge="1">
          <mxGeometry relative="1" as="geometry"/>
        </mxCell>
        <mxCell id="bOeEGVWyrz0i01WOjsEk-2" value="&lt;font style=&quot;font-size: 15px&quot;&gt;脑电数据&lt;br&gt;数据收集&lt;/font&gt;" style="strokeWidth=2;html=1;shape=mxgraph.flowchart.multi-document;whiteSpace=wrap;" parent="1" vertex="1">
          <mxGeometry x="306.5" y="250" width="127" height="80" as="geometry"/>
        </mxCell>
        <mxCell id="bOeEGVWyrz0i01WOjsEk-12" value="" style="group" parent="1" vertex="1" connectable="0">
          <mxGeometry x="280" y="90" width="180" height="80" as="geometry"/>
        </mxCell>
        <mxCell id="bOeEGVWyrz0i01WOjsEk-9" value="" style="group" parent="bOeEGVWyrz0i01WOjsEk-12" vertex="1" connectable="0">
          <mxGeometry x="30" y="10" width="120" height="40" as="geometry"/>
        </mxCell>
        <mxCell id="bOeEGVWyrz0i01WOjsEk-3" value="" style="shape=actor;whiteSpace=wrap;html=1;" parent="bOeEGVWyrz0i01WOjsEk-9" vertex="1">
          <mxGeometry width="30" height="40" as="geometry"/>
        </mxCell>
        <mxCell id="bOeEGVWyrz0i01WOjsEk-4" value="" style="shape=actor;whiteSpace=wrap;html=1;" parent="bOeEGVWyrz0i01WOjsEk-9" vertex="1">
          <mxGeometry x="30" width="30" height="40" as="geometry"/>
        </mxCell>
        <mxCell id="bOeEGVWyrz0i01WOjsEk-5" value="" style="shape=actor;whiteSpace=wrap;html=1;" parent="bOeEGVWyrz0i01WOjsEk-9" vertex="1">
          <mxGeometry x="60" width="30" height="40" as="geometry"/>
        </mxCell>
        <mxCell id="bOeEGVWyrz0i01WOjsEk-6" value="" style="shape=actor;whiteSpace=wrap;html=1;" parent="bOeEGVWyrz0i01WOjsEk-9" vertex="1">
          <mxGeometry x="90" width="30" height="40" as="geometry"/>
        </mxCell>
        <mxCell id="bOeEGVWyrz0i01WOjsEk-10" value="" style="rounded=0;whiteSpace=wrap;html=1;fillColor=none;" parent="bOeEGVWyrz0i01WOjsEk-12" vertex="1">
          <mxGeometry width="180" height="80" as="geometry"/>
        </mxCell>
        <mxCell id="bOeEGVWyrz0i01WOjsEk-11" value="病人" style="rounded=0;whiteSpace=wrap;html=1;fillColor=none;strokeColor=none;" parent="bOeEGVWyrz0i01WOjsEk-12" vertex="1">
          <mxGeometry x="61.5" y="50" width="57" height="30" as="geometry"/>
        </mxCell>
        <mxCell id="bOeEGVWyrz0i01WOjsEk-14" style="edgeStyle=orthogonalEdgeStyle;rounded=0;orthogonalLoop=1;jettySize=auto;html=1;exitX=0.5;exitY=1;exitDx=0;exitDy=0;entryX=0.5;entryY=0;entryDx=0;entryDy=0;entryPerimeter=0;" parent="1" source="bOeEGVWyrz0i01WOjsEk-11" target="bOeEGVWyrz0i01WOjsEk-2" edge="1">
          <mxGeometry relative="1" as="geometry"/>
        </mxCell>
        <mxCell id="OqMsm6uWWjB9fmB2JXj1-3" style="edgeStyle=orthogonalEdgeStyle;rounded=0;orthogonalLoop=1;jettySize=auto;html=1;exitX=0.5;exitY=1;exitDx=0;exitDy=0;" edge="1" parent="1" source="bOeEGVWyrz0i01WOjsEk-15" target="OqMsm6uWWjB9fmB2JXj1-2">
          <mxGeometry relative="1" as="geometry"/>
        </mxCell>
        <mxCell id="bOeEGVWyrz0i01WOjsEk-15" value="&lt;font style=&quot;font-size: 15px&quot;&gt;构建模型框架&lt;br&gt;&lt;/font&gt;" style="rounded=0;whiteSpace=wrap;html=1;fillColor=none;" parent="1" vertex="1">
          <mxGeometry x="310" y="390" width="120" height="60" as="geometry"/>
        </mxCell>
        <mxCell id="OqMsm6uWWjB9fmB2JXj1-4" style="edgeStyle=orthogonalEdgeStyle;rounded=0;orthogonalLoop=1;jettySize=auto;html=1;exitX=0.5;exitY=1;exitDx=0;exitDy=0;entryX=1;entryY=0.5;entryDx=0;entryDy=0;" edge="1" parent="1" source="bOeEGVWyrz0i01WOjsEk-20" target="OqMsm6uWWjB9fmB2JXj1-2">
          <mxGeometry relative="1" as="geometry"/>
        </mxCell>
        <mxCell id="bOeEGVWyrz0i01WOjsEk-20" value="&lt;font style=&quot;font-size: 15px&quot;&gt;医生的&lt;br&gt;专业知识&lt;/font&gt;" style="shape=internalStorage;whiteSpace=wrap;html=1;dx=15;dy=15;rounded=1;arcSize=8;strokeWidth=2;fillColor=none;" parent="1" vertex="1">
          <mxGeometry x="600" y="245" width="130" height="90" as="geometry"/>
        </mxCell>
        <mxCell id="OqMsm6uWWjB9fmB2JXj1-1" style="edgeStyle=orthogonalEdgeStyle;rounded=0;orthogonalLoop=1;jettySize=auto;html=1;exitX=1;exitY=0.5;exitDx=0;exitDy=0;entryX=0.5;entryY=0;entryDx=0;entryDy=0;" edge="1" parent="1" source="bOeEGVWyrz0i01WOjsEk-10" target="bOeEGVWyrz0i01WOjsEk-20">
          <mxGeometry relative="1" as="geometry"/>
        </mxCell>
        <mxCell id="OqMsm6uWWjB9fmB2JXj1-5" style="edgeStyle=orthogonalEdgeStyle;rounded=0;orthogonalLoop=1;jettySize=auto;html=1;exitX=0.5;exitY=1;exitDx=0;exitDy=0;" edge="1" parent="1" source="OqMsm6uWWjB9fmB2JXj1-2">
          <mxGeometry relative="1" as="geometry">
            <mxPoint x="370" y="630" as="targetPoint"/>
          </mxGeometry>
        </mxCell>
        <mxCell id="OqMsm6uWWjB9fmB2JXj1-2" value="&lt;font style=&quot;font-size: 15px&quot;&gt;模型可解释性&lt;/font&gt;" style="shape=hexagon;perimeter=hexagonPerimeter2;whiteSpace=wrap;html=1;" vertex="1" parent="1">
          <mxGeometry x="310" y="510" width="120" height="80" as="geometry"/>
        </mxCell>
        <mxCell id="OqMsm6uWWjB9fmB2JXj1-8" style="edgeStyle=orthogonalEdgeStyle;rounded=0;orthogonalLoop=1;jettySize=auto;html=1;exitX=0.5;exitY=1;exitDx=0;exitDy=0;" edge="1" parent="1" source="OqMsm6uWWjB9fmB2JXj1-6" target="OqMsm6uWWjB9fmB2JXj1-7">
          <mxGeometry relative="1" as="geometry"/>
        </mxCell>
        <mxCell id="OqMsm6uWWjB9fmB2JXj1-6" value="&lt;font style=&quot;font-size: 15px&quot;&gt;疾病特征查找&lt;/font&gt;" style="shape=process;whiteSpace=wrap;html=1;backgroundOutline=1;" vertex="1" parent="1">
          <mxGeometry x="306.5" y="630" width="120" height="60" as="geometry"/>
        </mxCell>
        <mxCell id="OqMsm6uWWjB9fmB2JXj1-7" value="&lt;font style=&quot;font-size: 15px&quot;&gt;辅助诊疗平台搭建&lt;br&gt;&lt;/font&gt;" style="rounded=0;whiteSpace=wrap;html=1;fillColor=none;" vertex="1" parent="1">
          <mxGeometry x="306.5" y="750" width="120" height="60" as="geometry"/>
        </mxCell>
      </root>
    </mxGraphModel>
  </diagram>
</mxfile>
